<svg width="192" height="32" viewBox="0 0 192 32" fill="none" xmlns="http://www.w3.org/2000/svg">
<path d="M3 11.0345C3 5.3091 6.8117 0 12.0312 0C15.6533 0 18.341 2.382 20 5.7611C21.6589 2.3822 24.3466 0 27.9688 0C33.1889 0 37 5.31 37 11.0345C37 23.2888 20 32 20 32C20 32 8.5487 26.4872 4.4431 17.4444H14.5848L16.1968 14.5788L18.0797 21.1692L22.4891 15.5H28V13.5H21.5109L18.9203 16.8308L16.8032 9.4212L13.4152 15.4444H3.67984C3.89182 16.1288 4.1486 16.7957 4.4431 17.4444L0 17.4443V15.4443L3.67984 15.4444C3.24643 14.0453 3 12.5731 3 11.0345Z" fill="#377BFA"/>
<path d="M189.792 10.88C190.283 10.88 190.709 11.072 191.072 11.456C191.435 11.8187 191.616 12.288 191.616 12.864C191.616 13.0133 191.605 13.152 191.584 13.28C191.563 13.3867 191.531 13.4933 191.488 13.6L186.592 26.784C186.443 27.2107 186.176 27.5413 185.792 27.776C185.408 27.9893 185.003 28.064 184.576 28C183.851 27.9573 183.307 27.552 182.944 26.784L179.776 17.664L180.608 17.696L177.632 26.784C177.269 27.552 176.725 27.9573 176 28C175.595 28.064 175.189 27.9893 174.784 27.776C174.4 27.5413 174.133 27.2107 173.984 26.784L169.088 13.6C169.003 13.3653 168.96 13.12 168.96 12.864C168.96 12.352 169.131 11.8933 169.472 11.488C169.813 11.0827 170.283 10.88 170.88 10.88C171.285 10.88 171.648 10.976 171.968 11.168C172.288 11.36 172.512 11.6693 172.64 12.096L176.512 22.592L175.712 22.528L178.624 14.624C178.965 13.8347 179.552 13.44 180.384 13.44C180.853 13.44 181.205 13.5467 181.44 13.76C181.696 13.952 181.899 14.24 182.048 14.624L184.96 22.528L184 22.656L187.936 12.096C188.192 11.2853 188.811 10.88 189.792 10.88Z" fill="#393941"/>
<path d="M166.719 19.456C166.719 21.2053 166.325 22.752 165.535 24.096C164.767 25.4187 163.722 26.4533 162.399 27.2C161.098 27.9467 159.637 28.32 158.015 28.32C156.394 28.32 154.922 27.9467 153.599 27.2C152.298 26.4533 151.253 25.4187 150.463 24.096C149.695 22.752 149.311 21.2053 149.311 19.456C149.311 17.7067 149.695 16.1707 150.463 14.848C151.253 13.504 152.298 12.4587 153.599 11.712C154.922 10.944 156.394 10.56 158.015 10.56C159.637 10.56 161.098 10.944 162.399 11.712C163.722 12.4587 164.767 13.504 165.535 14.848C166.325 16.1707 166.719 17.7067 166.719 19.456ZM162.879 19.456C162.879 18.368 162.655 17.4293 162.207 16.64C161.781 15.8293 161.194 15.2 160.447 14.752C159.722 14.304 158.911 14.08 158.015 14.08C157.119 14.08 156.298 14.304 155.551 14.752C154.826 15.2 154.239 15.8293 153.791 16.64C153.365 17.4293 153.151 18.368 153.151 19.456C153.151 20.5227 153.365 21.4613 153.791 22.272C154.239 23.0613 154.826 23.68 155.551 24.128C156.298 24.576 157.119 24.8 158.015 24.8C158.911 24.8 159.722 24.576 160.447 24.128C161.194 23.68 161.781 23.0613 162.207 22.272C162.655 21.4613 162.879 20.5227 162.879 19.456Z" fill="#393941"/>
<path d="M145.959 26.048C145.959 26.6027 145.767 27.072 145.383 27.456C145.02 27.8187 144.561 28 144.007 28C143.473 28 143.025 27.8187 142.663 27.456C142.3 27.072 142.119 26.6027 142.119 26.048V6.27201C142.119 5.71734 142.3 5.25867 142.663 4.89601C143.047 4.51201 143.516 4.32001 144.071 4.32001C144.625 4.32001 145.073 4.51201 145.415 4.89601C145.777 5.25867 145.959 5.71734 145.959 6.27201V26.048Z" fill="#393941"/>
<path d="M126.166 28C125.569 28 125.078 27.8187 124.694 27.456C124.331 27.072 124.15 26.6027 124.15 26.048V7.55201C124.15 6.99734 124.331 6.53867 124.694 6.17601C125.078 5.79201 125.547 5.60001 126.102 5.60001H136.502C137.057 5.60001 137.515 5.78134 137.878 6.14401C138.262 6.48534 138.454 6.93334 138.454 7.48801C138.454 7.95734 138.262 8.37334 137.878 8.73601C137.515 9.09867 137.057 9.28001 136.502 9.28001H127.862L128.15 8.89601V15.328L127.926 14.912H135.062C135.617 14.912 136.075 15.0933 136.438 15.456C136.822 15.7973 137.014 16.2453 137.014 16.8C137.014 17.2693 136.822 17.6853 136.438 18.048C136.075 18.4107 135.617 18.592 135.062 18.592H127.862L128.15 18.304V26.048C128.15 26.6027 127.947 27.072 127.542 27.456C127.158 27.8187 126.699 28 126.166 28Z" fill="#393941"/>
<path d="M119.883 26.048C119.883 26.6027 119.702 27.072 119.339 27.456C118.977 27.8187 118.518 28 117.963 28C117.409 28 116.95 27.8187 116.587 27.456C116.225 27.072 116.043 26.6027 116.043 26.048V12.832C116.043 12.2773 116.225 11.8187 116.587 11.456C116.95 11.072 117.409 10.88 117.963 10.88C118.518 10.88 118.977 11.072 119.339 11.456C119.702 11.8187 119.883 12.2773 119.883 12.832V26.048ZM117.931 8.8C117.206 8.8 116.694 8.68267 116.395 8.44801C116.097 8.21334 115.947 7.79734 115.947 7.2V6.592C115.947 5.97334 116.107 5.55734 116.427 5.34401C116.769 5.10934 117.281 4.992 117.963 4.992C118.71 4.992 119.233 5.10934 119.531 5.34401C119.83 5.57867 119.979 5.99467 119.979 6.592V7.2C119.979 7.81867 119.819 8.24534 119.499 8.48001C119.179 8.69334 118.657 8.8 117.931 8.8Z" fill="#393941"/>
<path d="M110.19 4.32001C110.744 4.32001 111.203 4.50134 111.566 4.86401C111.928 5.22667 112.11 5.69601 112.11 6.27201V26.048C112.11 26.6027 111.928 27.072 111.566 27.456C111.203 27.8187 110.744 28 110.19 28C109.635 28 109.176 27.8187 108.814 27.456C108.451 27.072 108.27 26.6027 108.27 26.048V24.48L108.974 24.768C108.974 25.0453 108.824 25.3867 108.526 25.792C108.227 26.176 107.822 26.56 107.31 26.944C106.798 27.328 106.19 27.6587 105.486 27.936C104.803 28.192 104.056 28.32 103.246 28.32C101.774 28.32 100.44 27.9467 99.2457 27.2C98.0511 26.432 97.1017 25.3867 96.3977 24.064C95.7151 22.72 95.3737 21.184 95.3737 19.456C95.3737 17.7067 95.7151 16.1707 96.3977 14.848C97.1017 13.504 98.0404 12.4587 99.2137 11.712C100.387 10.944 101.688 10.56 103.118 10.56C104.035 10.56 104.878 10.6987 105.646 10.976C106.414 11.2533 107.075 11.6053 107.63 12.032C108.206 12.4587 108.643 12.896 108.942 13.344C109.262 13.7707 109.422 14.1333 109.422 14.432L108.27 14.848V6.27201C108.27 5.71734 108.451 5.25867 108.814 4.89601C109.176 4.51201 109.635 4.32001 110.19 4.32001ZM103.726 24.8C104.664 24.8 105.486 24.5653 106.19 24.096C106.894 23.6267 107.438 22.9867 107.822 22.176C108.227 21.3653 108.43 20.4587 108.43 19.456C108.43 18.432 108.227 17.5147 107.822 16.704C107.438 15.8933 106.894 15.2533 106.19 14.784C105.486 14.3147 104.664 14.08 103.726 14.08C102.808 14.08 101.998 14.3147 101.294 14.784C100.59 15.2533 100.035 15.8933 99.6297 16.704C99.2457 17.5147 99.0537 18.432 99.0537 19.456C99.0537 20.4587 99.2457 21.3653 99.6297 22.176C100.035 22.9867 100.59 23.6267 101.294 24.096C101.998 24.5653 102.808 24.8 103.726 24.8Z" fill="#393941"/>
<path d="M85.3627 28.32C83.5494 28.32 81.9707 27.9467 80.6267 27.2C79.3041 26.432 78.2801 25.3973 77.5547 24.096C76.8507 22.7947 76.4987 21.3227 76.4987 19.68C76.4987 17.76 76.8827 16.128 77.6507 14.784C78.4401 13.4187 79.4641 12.3733 80.7227 11.648C81.9814 10.9227 83.3147 10.56 84.7227 10.56C85.8107 10.56 86.8347 10.784 87.7947 11.232C88.7761 11.68 89.6401 12.2987 90.3867 13.088C91.1334 13.856 91.7201 14.752 92.1467 15.776C92.5947 16.8 92.8187 17.888 92.8187 19.04C92.7974 19.552 92.5947 19.968 92.2107 20.288C91.8267 20.608 91.3787 20.768 90.8667 20.768H78.6427L77.6827 17.568H89.4267L88.7227 18.208V17.344C88.6801 16.7253 88.4561 16.1707 88.0507 15.68C87.6667 15.1893 87.1761 14.8053 86.5787 14.528C86.0027 14.2293 85.3841 14.08 84.7227 14.08C84.0827 14.08 83.4854 14.1653 82.9307 14.336C82.3761 14.5067 81.8961 14.7947 81.4907 15.2C81.0854 15.6053 80.7654 16.1493 80.5307 16.832C80.2961 17.5147 80.1787 18.3787 80.1787 19.424C80.1787 20.576 80.4134 21.5573 80.8827 22.368C81.3734 23.1573 81.9921 23.7653 82.7387 24.192C83.5067 24.5973 84.3174 24.8 85.1707 24.8C85.9601 24.8 86.5894 24.736 87.0587 24.608C87.5281 24.48 87.9014 24.3307 88.1787 24.16C88.4774 23.968 88.7441 23.808 88.9787 23.68C89.3627 23.488 89.7254 23.392 90.0667 23.392C90.5361 23.392 90.9201 23.552 91.2187 23.872C91.5387 24.192 91.6987 24.5653 91.6987 24.992C91.6987 25.568 91.4001 26.0907 90.8027 26.56C90.2481 27.0293 89.4694 27.4453 88.4667 27.808C87.4641 28.1493 86.4294 28.32 85.3627 28.32Z" fill="#393941"/>
<path d="M53.416 5.56799C53.7147 5.56799 54.024 5.65333 54.344 5.82399C54.6853 5.97333 54.9413 6.17599 55.112 6.43199L62.888 18.4L61.288 18.336L69.256 6.43199C69.6613 5.85599 70.184 5.56799 70.824 5.56799C71.336 5.56799 71.7947 5.74933 72.2 6.11199C72.6053 6.47466 72.808 6.94399 72.808 7.51999V26.048C72.808 26.6027 72.6267 27.072 72.264 27.456C71.9013 27.8187 71.4213 28 70.824 28C70.2267 28 69.736 27.8187 69.352 27.456C68.9893 27.072 68.808 26.6027 68.808 26.048V10.976L70.056 11.264L63.528 21.216C63.336 21.4507 63.0907 21.6533 62.792 21.824C62.5147 21.9947 62.2267 22.0693 61.928 22.048C61.6507 22.0693 61.3627 21.9947 61.064 21.824C60.7867 21.6533 60.552 21.4507 60.36 21.216L54.248 11.552L55.08 9.85599V26.048C55.08 26.6027 54.9093 27.072 54.568 27.456C54.2267 27.8187 53.7787 28 53.224 28C52.6907 28 52.2533 27.8187 51.912 27.456C51.5707 27.072 51.4 26.6027 51.4 26.048V7.51999C51.4 6.98666 51.592 6.52799 51.976 6.14399C52.3813 5.75999 52.8613 5.56799 53.416 5.56799Z" fill="#393941"/>
</svg>
